<svg width="24" height="24" viewBox="0 0 24 24" fill="none" xmlns="http://www.w3.org/2000/svg">
<path d="M20.1216 2.4H19.2V1.2C19.2 0.88174 19.0736 0.576516 18.8485 0.351472C18.6235 0.126428 18.3183 0 18 0C17.6817 0 17.3765 0.126428 17.1515 0.351472C16.9264 0.576516 16.8 0.88174 16.8 1.2V2.4H7.2V1.2C7.2 0.88174 7.07357 0.576516 6.84853 0.351472C6.62348 0.126428 6.31826 0 6 0C5.68174 0 5.37652 0.126428 5.15147 0.351472C4.92643 0.576516 4.8 0.88174 4.8 1.2V2.4H3.8784C2.84978 2.4 1.8633 2.80862 1.13596 3.53596C0.408616 4.2633 0 5.24978 0 6.2784L0 20.1216C0 21.1502 0.408616 22.1367 1.13596 22.864C1.8633 23.5914 2.84978 24 3.8784 24H20.1216C21.1502 24 22.1367 23.5914 22.864 22.864C23.5914 22.1367 24 21.1502 24 20.1216V6.2784C24 5.24978 23.5914 4.2633 22.864 3.53596C22.1367 2.80862 21.1502 2.4 20.1216 2.4V2.4ZM21.6 20.1216C21.6 20.5137 21.4442 20.8897 21.167 21.167C20.8897 21.4442 20.5137 21.6 20.1216 21.6H3.8784C3.4863 21.6 3.11027 21.4442 2.83301 21.167C2.55576 20.8897 2.4 20.5137 2.4 20.1216V6.2784C2.4 5.8863 2.55576 5.51027 2.83301 5.23301C3.11027 4.95576 3.4863 4.8 3.8784 4.8H4.8V6C4.8 6.31826 4.92643 6.62348 5.15147 6.84853C5.37652 7.07357 5.68174 7.2 6 7.2C6.31826 7.2 6.62348 7.07357 6.84853 6.84853C7.07357 6.62348 7.2 6.31826 7.2 6V4.8H16.8V6C16.8 6.31826 16.9264 6.62348 17.1515 6.84853C17.3765 7.07357 17.6817 7.2 18 7.2C18.3183 7.2 18.6235 7.07357 18.8485 6.84853C19.0736 6.62348 19.2 6.31826 19.2 6V4.8H20.1216C20.5137 4.8 20.8897 4.95576 21.167 5.23301C21.4442 5.51027 21.6 5.8863 21.6 6.2784V20.1216Z" fill="#111111"/>
<path d="M12 13.44C12.6628 13.44 13.2001 12.9027 13.2001 12.24C13.2001 11.5772 12.6628 11.04 12 11.04C11.3373 11.04 10.8 11.5772 10.8 12.24C10.8 12.9027 11.3373 13.44 12 13.44Z" fill="#111111"/>
<path d="M12 17.76C12.6628 17.76 13.2001 17.2227 13.2001 16.56C13.2001 15.8972 12.6628 15.36 12 15.36C11.3373 15.36 10.8 15.8972 10.8 16.56C10.8 17.2227 11.3373 17.76 12 17.76Z" fill="#111111"/>
<path d="M7.67998 17.76C8.34272 17.76 8.87998 17.2227 8.87998 16.56C8.87998 15.8972 8.34272 15.36 7.67998 15.36C7.01724 15.36 6.47998 15.8972 6.47998 16.56C6.47998 17.2227 7.01724 17.76 7.67998 17.76Z" fill="#111111"/>
<path d="M16.3201 13.44C16.9829 13.44 17.5201 12.9027 17.5201 12.24C17.5201 11.5772 16.9829 11.04 16.3201 11.04C15.6574 11.04 15.1201 11.5772 15.1201 12.24C15.1201 12.9027 15.6574 13.44 16.3201 13.44Z" fill="#00C569"/>
<path d="M16.3201 17.76C16.9829 17.76 17.5201 17.2227 17.5201 16.56C17.5201 15.8972 16.9829 15.36 16.3201 15.36C15.6574 15.36 15.1201 15.8972 15.1201 16.56C15.1201 17.2227 15.6574 17.76 16.3201 17.76Z" fill="#00C569"/>
</svg>
