<svg width="24" height="24" viewBox="0 0 24 24" fill="none" xmlns="http://www.w3.org/2000/svg">
<path d="M12 0C5.37238 0 0 5.37266 0 12C0 18.6273 5.37238 23.9999 12 23.9999C18.6271 23.9999 23.9999 18.6273 23.9999 12C23.9999 5.37266 18.6271 0 12 0ZM12 20.9546C7.06246 20.9546 3.04532 16.9378 3.04532 12C3.04532 7.06218 7.06246 3.04537 12 3.04537C16.9375 3.04537 20.9546 7.06246 20.9546 12C20.9546 16.9376 16.9375 20.9546 12 20.9546Z" fill="#F05228"/>
<path d="M3.11687 5.27019L18.7295 20.8828L20.8828 18.7295L5.27021 3.11684L3.11687 5.27019Z" fill="#F05228"/>
</svg>
