<svg width="42" height="42" viewBox="0 0 42 42" fill="none" xmlns="http://www.w3.org/2000/svg">
<g clip-path="url(#clip0_252_460)">
<path d="M21.0017 0C9.40034 0 0 9.40188 0 21.0041C0 32.5993 9.40034 42.0006 21.0017 42.0006C32.6049 42.0006 42 32.5993 42 21.0041C42 9.4013 32.6049 0 21.0017 0ZM30.1852 27.1458C30.9848 27.9714 30.7378 29.5102 29.6292 30.5851C28.5211 31.66 26.9752 31.8658 26.1739 31.0402L20.9397 25.6511L15.5484 30.8848C14.7244 31.6844 13.1855 31.4339 12.1105 30.3277C11.0355 29.2214 10.8314 27.6757 11.6553 26.8744L17.0467 21.6407L11.8125 16.2498C11.0129 15.4259 11.2639 13.8854 12.3703 12.8105C13.4749 11.7373 15.0242 11.5326 15.822 12.3553L21.0562 17.7456L26.4493 12.5142C27.275 11.7129 28.8139 11.9634 29.8872 13.0696C30.9639 14.1759 31.1663 15.7233 30.3424 16.5246L24.9528 21.7566L30.1852 27.1458Z" fill="#00C569"/>
</g>
<defs>
<clipPath id="clip0_252_460">
<rect width="42" height="42" fill="white"/>
</clipPath>
</defs>
</svg>
