<svg width="54" height="54" viewBox="0 0 54 54" fill="none" xmlns="http://www.w3.org/2000/svg">
<path d="M5.625 39.375V14.625C5.625 12.15 7.65 10.125 10.125 10.125H43.875C46.35 10.125 48.375 12.15 48.375 14.625V39.375C48.375 41.85 46.35 43.875 43.875 43.875H10.125C7.65 43.875 5.625 41.85 5.625 39.375Z" fill="#FF9800"/>
<path d="M48.375 23.625V21.375H34.875C33.6375 21.375 32.625 20.3625 32.625 19.125C32.625 17.8875 33.6375 16.875 34.875 16.875H36V14.625H34.875C32.4 14.625 30.375 16.65 30.375 19.125C30.375 21.6 32.4 23.625 34.875 23.625H38.25V30.375H34.875C31.725 30.375 29.25 32.85 29.25 36C29.25 39.15 31.725 41.625 34.875 41.625H37.125V39.375H34.875C32.9625 39.375 31.5 37.9125 31.5 36C31.5 34.0875 32.9625 32.625 34.875 32.625H48.375V30.375H40.5V23.625H48.375Z" fill="#FFD54F"/>
<path d="M19.125 30.375H15.75V23.625H19.125C21.6 23.625 23.625 21.6 23.625 19.125C23.625 16.65 21.6 14.625 19.125 14.625H15.75V16.875H19.125C20.3625 16.875 21.375 17.8875 21.375 19.125C21.375 20.3625 20.3625 21.375 19.125 21.375H5.625V23.625H13.5V30.375H5.625V32.625H19.125C21.0375 32.625 22.5 34.0875 22.5 36C22.5 37.9125 21.0375 39.375 19.125 39.375H16.875V41.625H19.125C22.275 41.625 24.75 39.15 24.75 36C24.75 32.85 22.275 30.375 19.125 30.375Z" fill="#FFD54F"/>
</svg>
