<svg width="25" height="25" viewBox="0 0 25 25" fill="none" xmlns="http://www.w3.org/2000/svg">
<path d="M19.3955 7.30815L19.1455 6.87514L19.3955 7.30815C19.7086 7.12738 20.1156 7.23643 20.2964 7.5495C20.2964 7.54951 20.2964 7.54952 20.2964 7.54952L22.2459 10.9261L22.1893 12.6859L22.1727 13.202H22.6891H23.5598L24.4125 14.679C24.5934 14.9922 24.4843 15.3992 24.1712 15.5799L11.2679 23.0296C10.9546 23.2105 10.5477 23.1014 10.3669 22.7883C10.3669 22.7883 10.3669 22.7883 10.3669 22.7883L9.44121 21.1848L9.49781 19.425L9.5144 18.9089H8.99806H8.12726L6.2508 15.6588C6.06999 15.3456 6.17907 14.9387 6.4922 14.7579L19.3955 7.30815Z" fill="white" stroke="black"/>
<path d="M23.8478 12.7018L22.7498 10.7999L7.83895 19.4089L8.93702 21.3108L23.8478 12.7018Z" fill="black"/>
<path d="M16.0589 1.38293H1.15947C0.521778 1.38293 0 1.90471 0 2.54241V10.7748C0 11.4125 0.521778 11.9343 1.15947 11.9343H16.0589C16.6966 11.9343 17.2184 11.4125 17.2184 10.7748V2.54241C17.2184 1.90471 16.6967 1.38293 16.0589 1.38293Z" fill="#0E1D25"/>
<path d="M14.8995 10.2255H12.0243C11.7041 10.2255 11.4446 9.9659 11.4446 9.64578C11.4446 9.32566 11.7042 9.06604 12.0243 9.06604H14.8995C15.2197 9.06604 15.4792 9.32566 15.4792 9.64578C15.4792 9.96594 15.2197 10.2255 14.8995 10.2255Z" fill="white"/>
<path d="M10.0467 10.2255H7.17159C6.85138 10.2255 6.59186 9.9659 6.59186 9.64578C6.59186 9.32566 6.85143 9.06604 7.17159 9.06604H10.0467C10.367 9.06604 10.6265 9.32566 10.6265 9.64578C10.6265 9.96594 10.367 10.2255 10.0467 10.2255Z" fill="white"/>
<path d="M5.1941 10.2255H2.319C1.99878 10.2255 1.73926 9.9659 1.73926 9.64578C1.73926 9.32566 1.99883 9.06604 2.319 9.06604H5.19415C5.51436 9.06604 5.77388 9.32566 5.77388 9.64578C5.77384 9.96594 5.51431 10.2255 5.1941 10.2255Z" fill="white"/>
<path d="M5.95419 6.16728C5.95419 6.80498 5.43242 7.32676 4.79472 7.32676H3.47851C2.84081 7.32676 2.31903 6.80498 2.31903 6.16728V4.85112C2.31903 4.21343 2.84081 3.69165 3.47851 3.69165H4.79472C5.43242 3.69165 5.95419 4.21343 5.95419 4.85112V6.16728Z" fill="white"/>
</svg>
