<svg width="25" height="22" viewBox="0 0 25 22" fill="none" xmlns="http://www.w3.org/2000/svg">
<g clip-path="url(#clip0_8:341)">
<path fill-rule="evenodd" clip-rule="evenodd" d="M14.2857 0C8.36905 0 3.57143 4.92556 3.57143 11H0L4.63095 15.7544L4.71429 15.9256L9.52381 11H5.95238C5.95238 6.27 9.67857 2.44444 14.2857 2.44444C18.8929 2.44444 22.619 6.27 22.619 11C22.619 15.73 18.8929 19.5556 14.2857 19.5556C11.9881 19.5556 9.90476 18.59 8.40476 17.0378L6.71429 18.7733C8.65476 20.7656 11.3214 22 14.2857 22C20.2024 22 25 17.0744 25 11C25 4.92556 20.2024 0 14.2857 0ZM13.0952 6.11111V12.2222L18.1548 15.3022L19.0714 13.7378L14.881 11.1833V6.11111H13.0952Z" fill="#1D1D1D"/>
</g>
<defs>
<clipPath id="clip0_8:341">
<rect width="25" height="22" fill="white"/>
</clipPath>
</defs>
</svg>
