<svg width="124" height="76" viewBox="0 0 124 76" fill="none" xmlns="http://www.w3.org/2000/svg">
<rect x="27" width="69" height="54" fill="#3DDC84"/>
<path d="M50.809 41.3015L51.059 29.2515L43.159 29.2515L42.759 32.8515C41.8257 32.8515 40.8257 32.5681 39.759 32.0015V22.5015L41.509 22.3515C42.009 23.7848 42.3424 24.9848 42.509 25.9515L51.059 25.9515C51.1257 23.0515 51.1924 18.7681 51.259 13.1015H39.809L38.609 17.8015L35.709 17.6015C35.2424 15.7015 35.009 14.0181 35.009 12.5515C35.009 11.1181 35.0424 10.1848 35.109 9.75147L59.409 9.75147L59.559 11.5015C58.0924 12.0348 56.6757 12.4181 55.309 12.6515C55.509 25.6515 55.6757 35.3181 55.809 41.6515C56.5424 41.7181 58.009 42.1181 60.209 42.8515L59.959 44.7515H35.859C35.7924 44.3181 35.759 43.6515 35.759 42.7515C35.759 40.9181 35.9924 38.9348 36.459 36.8015C37.1924 36.6348 38.159 36.5515 39.359 36.5515L40.559 41.3015H50.809Z" fill="white"/>
<path d="M72.463 12.8316L72.213 24.8816H80.113L80.513 21.2816C81.4463 21.2816 82.4463 21.5649 83.513 22.1316V31.6316L81.763 31.7816C81.263 30.3483 80.9297 29.1483 80.763 28.1816H72.213C72.1463 31.0816 72.0797 35.3649 72.013 41.0316H83.463L84.663 36.3316L87.563 36.5316C88.0297 38.4316 88.263 40.1149 88.263 41.5816C88.263 43.0149 88.2297 43.9483 88.163 44.3816H63.863L63.713 42.6316C65.1797 42.0983 66.5963 41.7149 67.963 41.4816C67.763 28.4816 67.5963 18.8149 67.463 12.4816C66.7297 12.4149 65.263 12.0149 63.063 11.2816L63.313 9.38159H87.413C87.4797 9.81492 87.513 10.4816 87.513 11.3816C87.513 13.2149 87.2797 15.1983 86.813 17.3316C86.0797 17.4983 85.113 17.5816 83.913 17.5816L82.713 12.8316H72.463Z" fill="white"/>
<path d="M4.02793 62.5H9.53793V64.29H9.01793L8.62793 62.93H6.06793V65.92H7.99793L8.26793 65.05H8.63793V67.12H8.26793L7.99793 66.36H6.06793V69.57H8.80793L9.19793 68.22H9.72793V70H4.02793V69.63L5.01793 69.4V63.11L4.02793 62.87V62.5ZM16.0099 62.5H18.4599V62.86L17.6199 63.12L14.7899 70.08H14.1999L11.4399 63.09L10.5299 62.87V62.5H13.5699V62.87L12.6099 63.09L14.8399 68.83L16.8699 63.11L16.0099 62.86V62.5ZM19.7604 62.5H25.2704V64.29H24.7504L24.3604 62.93H21.8004V65.92H23.7304L24.0004 65.05H24.3704V67.12H24.0004L23.7304 66.36H21.8004V69.57H24.5404L24.9304 68.22H25.4604V70H19.7604V69.63L20.7504 69.4V63.11L19.7604 62.87V62.5ZM32.0923 62.5H34.5523V62.87L33.5723 63.12V70H32.8723L28.1923 63.14V69.41L29.1723 69.63V70H26.7623V69.63L27.6923 69.41V63.13L26.7623 62.87V62.5H28.9923L33.0723 68.42V63.13L32.0923 62.87V62.5ZM37.5221 70V69.63L38.4921 69.4V62.93H36.6621L36.2721 64.39H35.7521V62.5H42.3121V64.39H41.7921L41.4021 62.93H39.5421V69.41L40.5621 69.63V70H37.5221ZM46.3229 62.5H51.8329V64.29H51.3129L50.9229 62.93H48.3629V65.92H50.2929L50.5629 65.05H50.9329V67.12H50.5629L50.2929 66.36H48.3629V69.57H51.1029L51.4929 68.22H52.0229V70H46.3229V69.63L47.3129 69.4V63.11L46.3229 62.87V62.5ZM58.6548 62.5H61.1148V62.87L60.1348 63.12V70H59.4348L54.7548 63.14V69.41L55.7348 69.63V70H53.3248V69.63L54.2548 69.41V63.13L53.3248 62.87V62.5H55.5548L59.6348 68.42V63.13L58.6548 62.87V62.5ZM64.0846 70V69.63L65.0546 69.4V62.93H63.2246L62.8346 64.39H62.3146V62.5H68.8746V64.39H68.3546L67.9646 62.93H66.1046V69.41L67.1246 69.63V70H64.0846ZM74.8029 70V69.63L75.7829 69.41V66.4H72.1229V69.41L73.1229 69.63V70H70.0729V69.63L71.0729 69.41V63.11L70.0729 62.87V62.5H73.1229V62.87L72.1229 63.11V65.95H75.7829V63.11L74.8029 62.87V62.5H77.8429V62.87L76.8329 63.1V69.4L77.8429 69.63V70H74.8029ZM84.5532 62.5H87.0432V62.86L86.1032 63.11V67.12C86.1032 69.14 85.1365 70.15 83.2032 70.15C82.2165 70.15 81.4932 69.8867 81.0332 69.36C80.5732 68.8267 80.3432 68.0367 80.3432 66.99V63.11L79.3432 62.87V62.5H82.3832V62.87L81.3932 63.1V67.18C81.3932 68.0467 81.5632 68.6833 81.9032 69.09C82.2432 69.49 82.7498 69.69 83.4232 69.69C84.8432 69.69 85.5532 68.8167 85.5532 67.07V63.11L84.5532 62.86V62.5ZM90.7096 70.09C89.9363 70.09 89.163 69.85 88.3896 69.37V67.72H88.9696L89.3996 69.34C89.7796 69.58 90.2063 69.7 90.6796 69.7C91.033 69.7 91.393 69.62 91.7596 69.46C91.953 69.3733 92.113 69.2467 92.2396 69.08C92.3663 68.9133 92.4363 68.7167 92.4496 68.49C92.4296 67.9567 92.153 67.5133 91.6196 67.16C91.4196 67.0333 91.1496 66.8933 90.8096 66.74C90.4696 66.58 90.2496 66.4767 90.1496 66.43C88.943 65.9367 88.3396 65.2633 88.3396 64.41C88.3396 63.8767 88.5463 63.41 88.9596 63.01C89.373 62.61 89.963 62.41 90.7296 62.41C91.123 62.41 91.5296 62.4733 91.9496 62.6C92.3696 62.72 92.7196 62.9133 92.9996 63.18V64.64H92.4896L92.0296 63.12C91.6563 62.92 91.2563 62.82 90.8296 62.82C90.403 62.82 90.0463 62.9233 89.7596 63.13C89.473 63.33 89.3296 63.61 89.3296 63.97C89.3296 64.39 89.5063 64.7267 89.8596 64.98C90.1596 65.2 90.4763 65.3867 90.8096 65.54C91.143 65.6867 91.3496 65.78 91.4296 65.82C92.783 66.3933 93.4596 67.1333 93.4596 68.04C93.4596 68.4933 93.3063 68.88 92.9996 69.2C92.4396 69.7933 91.6763 70.09 90.7096 70.09ZM94.5748 62.5H97.6148V62.87L96.6148 63.1V69.41L97.6148 69.63V70H94.5748V69.63L95.5648 69.4V63.11L94.5748 62.87V62.5ZM99.0186 70V69.63L99.9086 69.41L102.939 62.42H103.449L106.329 69.41L107.169 69.63V70H104.329V69.63L105.199 69.42L104.409 67.48H101.389L100.639 69.42L101.539 69.63V70H99.0186ZM101.529 67.1H104.269L102.869 63.59L101.529 67.1ZM110.739 70.09C109.966 70.09 109.192 69.85 108.419 69.37V67.72H108.999L109.429 69.34C109.809 69.58 110.236 69.7 110.709 69.7C111.062 69.7 111.422 69.62 111.789 69.46C111.982 69.3733 112.142 69.2467 112.269 69.08C112.396 68.9133 112.466 68.7167 112.479 68.49C112.459 67.9567 112.182 67.5133 111.649 67.16C111.449 67.0333 111.179 66.8933 110.839 66.74C110.499 66.58 110.279 66.4767 110.179 66.43C108.972 65.9367 108.369 65.2633 108.369 64.41C108.369 63.8767 108.576 63.41 108.989 63.01C109.402 62.61 109.992 62.41 110.759 62.41C111.152 62.41 111.559 62.4733 111.979 62.6C112.399 62.72 112.749 62.9133 113.029 63.18V64.64H112.519L112.059 63.12C111.686 62.92 111.286 62.82 110.859 62.82C110.432 62.82 110.076 62.9233 109.789 63.13C109.502 63.33 109.359 63.61 109.359 63.97C109.359 64.39 109.536 64.7267 109.889 64.98C110.189 65.2 110.506 65.3867 110.839 65.54C111.172 65.6867 111.379 65.78 111.459 65.82C112.812 66.3933 113.489 67.1333 113.489 68.04C113.489 68.4933 113.336 68.88 113.029 69.2C112.469 69.7933 111.706 70.09 110.739 70.09ZM115.784 70V69.63L116.754 69.4V62.93H114.924L114.534 64.39H114.014V62.5H120.574V64.39H120.054L119.664 62.93H117.804V69.41L118.824 69.63V70H115.784Z" fill="#00C569"/>
</svg>
