<svg width="267" height="170" viewBox="0 0 267 170" fill="none" xmlns="http://www.w3.org/2000/svg">
<rect x="41" width="182" height="133" fill="#3DDC84"/>
<path d="M105.817 102.03L106.467 70.7H85.9272L84.8872 80.06C82.4606 80.06 79.8606 79.3233 77.0872 77.85V53.15L81.6372 52.76C82.9372 56.4867 83.8039 59.6067 84.2372 62.12H106.467C106.641 54.58 106.814 43.4433 106.987 28.71L77.2172 28.71L74.0972 40.93L66.5572 40.41C65.3439 35.47 64.7372 31.0933 64.7372 27.28C64.7372 23.5533 64.8239 21.1267 64.9972 20L128.177 20L128.567 24.55C124.754 25.9367 121.071 26.9333 117.517 27.54C118.037 61.34 118.471 86.4733 118.817 102.94C120.724 103.113 124.537 104.153 130.257 106.06L129.607 111L66.9472 111C66.7739 109.873 66.6872 108.14 66.6872 105.8C66.6872 101.033 67.2939 95.8767 68.5072 90.33C70.4139 89.8967 72.9272 89.68 76.0472 89.68L79.1672 102.03H105.817Z" fill="white"/>
<path d="M158.34 28.97L157.69 60.3H178.23L179.27 50.94C181.697 50.94 184.297 51.6767 187.07 53.15V77.85L182.52 78.24C181.22 74.5133 180.353 71.3933 179.92 68.88H157.69C157.517 76.42 157.343 87.5567 157.17 102.29H186.94L190.06 90.07L197.6 90.59C198.813 95.53 199.42 99.9067 199.42 103.72C199.42 107.447 199.333 109.873 199.16 111H135.98L135.59 106.45C139.403 105.063 143.087 104.067 146.64 103.46C146.12 69.66 145.687 44.5267 145.34 28.06C143.433 27.8867 139.62 26.8467 133.9 24.94L134.55 20H197.21C197.383 21.1267 197.47 22.86 197.47 25.2C197.47 29.9667 196.863 35.1233 195.65 40.67C193.743 41.1033 191.23 41.32 188.11 41.32L184.99 28.97H158.34Z" fill="white"/>
<path d="M5.96145 146.5H18.0834V150.438H16.9394L16.0814 147.446H10.4494V154.024H14.6954L15.2894 152.11H16.1034V156.664H15.2894L14.6954 154.992H10.4494V162.054H16.4774L17.3354 159.084H18.5014V163H5.96145V162.186L8.13945 161.68V147.842L5.96145 147.314V146.5ZM32.3217 146.5H37.7117V147.292L35.8637 147.864L29.6377 163.176H28.3397L22.2677 147.798L20.2657 147.314V146.5H26.9537V147.314L24.8417 147.798L29.7477 160.426L34.2137 147.842L32.3217 147.292V146.5ZM40.5728 146.5H52.6948V150.438H51.5508L50.6928 147.446H45.0608V154.024H49.3068L49.9008 152.11H50.7148V156.664H49.9008L49.3068 154.992H45.0608V162.054H51.0888L51.9468 159.084H53.1128V163H40.5728V162.186L42.7508 161.68V147.842L40.5728 147.314V146.5ZM67.7031 146.5H73.1151V147.314L70.9591 147.864V163H69.4191L59.1231 147.908V161.702L61.2791 162.186V163H55.9771V162.186L58.0231 161.702V147.886L55.9771 147.314V146.5H60.8831L69.8591 159.524V147.886L67.7031 147.314V146.5ZM79.6487 163V162.186L81.7827 161.68V147.446H77.7567L76.8987 150.658H75.7547V146.5H90.1867V150.658H89.0427L88.1847 147.446H84.0927V161.702L86.3367 162.186V163H79.6487ZM99.0103 146.5H111.132V150.438H109.988L109.13 147.446H103.498V154.024H107.744L108.338 152.11H109.152V156.664H108.338L107.744 154.992H103.498V162.054H109.526L110.384 159.084H111.55V163H99.0103V162.186L101.188 161.68V147.842L99.0103 147.314V146.5ZM126.141 146.5H131.553V147.314L129.397 147.864V163H127.857L117.561 147.908V161.702L119.717 162.186V163H114.415V162.186L116.461 161.702V147.886L114.415 147.314V146.5H119.321L128.297 159.524V147.886L126.141 147.314V146.5ZM138.086 163V162.186L140.22 161.68V147.446H136.194L135.336 150.658H134.192V146.5H148.624V150.658H147.48L146.622 147.446H142.53V161.702L144.774 162.186V163H138.086ZM161.666 163V162.186L163.822 161.702V155.08H155.77V161.702L157.97 162.186V163H151.26V162.186L153.46 161.702V147.842L151.26 147.314V146.5H157.97V147.314L155.77 147.842V154.09H163.822V147.842L161.666 147.314V146.5H168.354V147.314L166.132 147.82V161.68L168.354 162.186V163H161.666ZM183.117 146.5H188.595V147.292L186.527 147.842V156.664C186.527 161.108 184.4 163.33 180.147 163.33C177.976 163.33 176.385 162.751 175.373 161.592C174.361 160.419 173.855 158.681 173.855 156.378V147.842L171.655 147.314V146.5H178.343V147.314L176.165 147.82V156.796C176.165 158.703 176.539 160.103 177.287 160.998C178.035 161.878 179.15 162.318 180.631 162.318C183.755 162.318 185.317 160.397 185.317 156.554V147.842L183.117 147.292V146.5ZM196.661 163.198C194.96 163.198 193.259 162.67 191.557 161.614V157.984H192.833L193.779 161.548C194.615 162.076 195.554 162.34 196.595 162.34C197.373 162.34 198.165 162.164 198.971 161.812C199.397 161.621 199.749 161.343 200.027 160.976C200.306 160.609 200.46 160.177 200.489 159.678C200.445 158.505 199.837 157.529 198.663 156.752C198.223 156.473 197.629 156.165 196.881 155.828C196.133 155.476 195.649 155.249 195.429 155.146C192.775 154.061 191.447 152.579 191.447 150.702C191.447 149.529 191.902 148.502 192.811 147.622C193.721 146.742 195.019 146.302 196.705 146.302C197.571 146.302 198.465 146.441 199.389 146.72C200.313 146.984 201.083 147.409 201.699 147.996V151.208H200.577L199.565 147.864C198.744 147.424 197.864 147.204 196.925 147.204C195.987 147.204 195.202 147.431 194.571 147.886C193.941 148.326 193.625 148.942 193.625 149.734C193.625 150.658 194.014 151.399 194.791 151.956C195.451 152.44 196.148 152.851 196.881 153.188C197.615 153.511 198.069 153.716 198.245 153.804C201.223 155.065 202.711 156.693 202.711 158.688C202.711 159.685 202.374 160.536 201.699 161.24C200.467 162.545 198.788 163.198 196.661 163.198ZM205.165 146.5H211.853V147.314L209.653 147.82V161.702L211.853 162.186V163H205.165V162.186L207.343 161.68V147.842L205.165 147.314V146.5ZM214.941 163V162.186L216.899 161.702L223.565 146.324H224.687L231.023 161.702L232.871 162.186V163H226.623V162.186L228.537 161.724L226.799 157.456H220.155L218.505 161.724L220.485 162.186V163H214.941ZM220.463 156.62H226.491L223.411 148.898L220.463 156.62ZM240.726 163.198C239.024 163.198 237.323 162.67 235.622 161.614V157.984H236.898L237.844 161.548C238.68 162.076 239.618 162.34 240.66 162.34C241.437 162.34 242.229 162.164 243.036 161.812C243.461 161.621 243.813 161.343 244.092 160.976C244.37 160.609 244.524 160.177 244.554 159.678C244.51 158.505 243.901 157.529 242.728 156.752C242.288 156.473 241.694 156.165 240.946 155.828C240.198 155.476 239.714 155.249 239.494 155.146C236.839 154.061 235.512 152.579 235.512 150.702C235.512 149.529 235.966 148.502 236.876 147.622C237.785 146.742 239.083 146.302 240.77 146.302C241.635 146.302 242.53 146.441 243.454 146.72C244.378 146.984 245.148 147.409 245.764 147.996V151.208H244.642L243.63 147.864C242.808 147.424 241.928 147.204 240.99 147.204C240.051 147.204 239.266 147.431 238.636 147.886C238.005 148.326 237.69 148.942 237.69 149.734C237.69 150.658 238.078 151.399 238.856 151.956C239.516 152.44 240.212 152.851 240.946 153.188C241.679 153.511 242.134 153.716 242.31 153.804C245.287 155.065 246.776 156.693 246.776 158.688C246.776 159.685 246.438 160.536 245.764 161.24C244.532 162.545 242.852 163.198 240.726 163.198ZM251.825 163V162.186L253.959 161.68V147.446H249.933L249.075 150.658H247.931V146.5H262.363V150.658H261.219L260.361 147.446H256.269V161.702L258.513 162.186V163H251.825Z" fill="#3DDC84"/>
</svg>
