<svg width="24" height="24" viewBox="0 0 24 24" fill="none" xmlns="http://www.w3.org/2000/svg">
<g clip-path="url(#clip0_16:381)">
<path d="M12 0C9.62663 0 7.30655 0.703788 5.33316 2.02236C3.35977 3.34094 1.8217 5.21509 0.913451 7.4078C0.00519943 9.60051 -0.232441 12.0133 0.230582 14.3411C0.693605 16.6689 1.83649 18.8071 3.51472 20.4853C5.19295 22.1635 7.33115 23.3064 9.65892 23.7694C11.9867 24.2324 14.3995 23.9948 16.5922 23.0866C18.7849 22.1783 20.6591 20.6402 21.9776 18.6668C23.2962 16.6935 24 14.3734 24 12C24 8.8174 22.7357 5.76516 20.4853 3.51472C18.2349 1.26428 15.1826 0 12 0V0ZM12 22C10.0222 22 8.08879 21.4135 6.4443 20.3147C4.79981 19.2159 3.51809 17.6541 2.76121 15.8268C2.00433 13.9996 1.8063 11.9889 2.19215 10.0491C2.578 8.10929 3.53041 6.32746 4.92894 4.92893C6.32746 3.53041 8.10929 2.578 10.0491 2.19215C11.9889 1.8063 13.9996 2.00433 15.8268 2.7612C17.6541 3.51808 19.2159 4.79981 20.3147 6.4443C21.4135 8.08879 22 10.0222 22 12C22 14.6522 20.9464 17.1957 19.0711 19.0711C17.1957 20.9464 14.6522 22 12 22V22Z" fill="#00C569"/>
<path d="M17 7.25H7C6.73478 7.25 6.48043 7.35536 6.29289 7.54289C6.10536 7.73043 6 7.98478 6 8.25C6 8.51522 6.10536 8.76957 6.29289 8.95711C6.48043 9.14464 6.73478 9.25 7 9.25H17C17.2652 9.25 17.5196 9.14464 17.7071 8.95711C17.8946 8.76957 18 8.51522 18 8.25C18 7.98478 17.8946 7.73043 17.7071 7.54289C17.5196 7.35536 17.2652 7.25 17 7.25Z" fill="#00C569"/>
<path d="M17 11H7C6.73478 11 6.48043 11.1054 6.29289 11.2929C6.10536 11.4804 6 11.7348 6 12C6 12.2652 6.10536 12.5196 6.29289 12.7071C6.48043 12.8946 6.73478 13 7 13H17C17.2652 13 17.5196 12.8946 17.7071 12.7071C17.8946 12.5196 18 12.2652 18 12C18 11.7348 17.8946 11.4804 17.7071 11.2929C17.5196 11.1054 17.2652 11 17 11Z" fill="#00C569"/>
<path d="M17 14.75H7C6.73478 14.75 6.48043 14.8554 6.29289 15.0429C6.10536 15.2304 6 15.4848 6 15.75C6 16.0152 6.10536 16.2696 6.29289 16.4571C6.48043 16.6446 6.73478 16.75 7 16.75H17C17.2652 16.75 17.5196 16.6446 17.7071 16.4571C17.8946 16.2696 18 16.0152 18 15.75C18 15.4848 17.8946 15.2304 17.7071 15.0429C17.5196 14.8554 17.2652 14.75 17 14.75Z" fill="#00C569"/>
</g>
<defs>
<clipPath id="clip0_16:381">
<rect width="24" height="24" fill="white"/>
</clipPath>
</defs>
</svg>
