<svg width="25" height="25" viewBox="0 0 25 25" fill="none" xmlns="http://www.w3.org/2000/svg">
<g clip-path="url(#clip0_278_485)">
<path d="M15.4722 4.6296C15.4722 7.20713 17.5613 9.29627 20.1389 9.29627C20.444 9.29627 20.7409 9.26565 21.0277 9.20893V23.0393C21.0277 23.8461 20.3738 24.5 19.5671 24.5H2.19209C1.38537 24.5 0.731445 23.8461 0.731445 23.0393V5.66432C0.731445 4.85759 1.38537 4.20367 2.19209 4.20367H15.4926C15.4792 4.34348 15.4722 4.48551 15.4722 4.6296Z" fill="white" stroke="black"/>
<path d="M18.1388 9.79628C20.44 9.79628 22.3055 7.9308 22.3055 5.62962C22.3055 3.32843 20.44 1.46295 18.1388 1.46295C15.8376 1.46295 13.9722 3.32843 13.9722 5.62962C13.9722 7.9308 15.8376 9.79628 18.1388 9.79628Z" fill="white" stroke="#FF0000" stroke-miterlimit="10" stroke-linecap="round"/>
<path d="M9.71194 8.82297L9.89571 8.75997L9.98873 8.58943C10.196 8.2094 10.5719 8 10.9998 8C11.4277 8 11.8035 8.2094 12.0108 8.58943L12.1039 8.75997L12.2876 8.82297C13.833 9.35282 14.8998 10.861 14.8998 12.5C14.8998 14.1942 15.3765 15.8403 16.3319 17.2745L16.8718 18.109C17.0046 18.3475 17.0026 18.5497 16.9157 18.7019L16.9015 18.7268L16.8902 18.753C16.8415 18.8668 16.6638 19 16.3998 19H5.59978C5.37724 19 5.19391 18.8944 5.0839 18.7019C4.99693 18.5497 4.99496 18.3475 5.12774 18.109L5.66772 17.2745C6.62305 15.8402 7.09978 14.1942 7.09978 12.5C7.09978 10.861 8.16654 9.35282 9.71194 8.82297Z" fill="white" stroke="black"/>
<path d="M10.9998 22C10.2688 22 9.62564 21.6036 9.27371 21H12.7259C12.374 21.6036 11.7308 22 10.9998 22Z" fill="white" stroke="black"/>
</g>
<defs>
<clipPath id="clip0_278_485">
<rect width="25" height="25" fill="white"/>
</clipPath>
</defs>
</svg>
