<svg width="25" height="20" viewBox="0 0 25 20" fill="none" xmlns="http://www.w3.org/2000/svg">
<path d="M24.1074 5H0.893066V9H24.1074V5Z" fill="#1A1A1A"/>
<path d="M24.1071 20H0.892857C0.656057 20 0.428955 19.8946 0.261512 19.7071C0.0940686 19.5196 0 19.2652 0 19V1C0 0.734784 0.0940686 0.48043 0.261512 0.292893C0.428955 0.105357 0.656057 0 0.892857 0H24.1071C24.3439 0 24.571 0.105357 24.7385 0.292893C24.9059 0.48043 25 0.734784 25 1V19C25 19.2652 24.9059 19.5196 24.7385 19.7071C24.571 19.8946 24.3439 20 24.1071 20ZM1.78571 18H23.2143V2H1.78571V18Z" fill="#1A1A1A"/>
<path d="M16.9643 16.5C17.704 16.5 18.3036 15.8284 18.3036 15C18.3036 14.1716 17.704 13.5 16.9643 13.5C16.2246 13.5 15.625 14.1716 15.625 15C15.625 15.8284 16.2246 16.5 16.9643 16.5Z" fill="#1A1A1A"/>
<path d="M20.5356 16.5C21.2752 16.5 21.8749 15.8284 21.8749 15C21.8749 14.1716 21.2752 13.5 20.5356 13.5C19.7959 13.5 19.1963 14.1716 19.1963 15C19.1963 15.8284 19.7959 16.5 20.5356 16.5Z" fill="#1A1A1A"/>
</svg>
