<svg width="25" height="24" viewBox="0 0 25 24" fill="none" xmlns="http://www.w3.org/2000/svg">
<g clip-path="url(#clip0_11:747)">
<path d="M24.3731 21.9454L19.2911 16.8644C19.0413 16.6155 18.703 16.4758 18.3503 16.4758C17.9976 16.4758 17.6593 16.6155 17.4094 16.8644C16.0703 18.159 14.3395 18.9728 12.4881 19.1785C10.6368 19.3841 8.76951 18.97 7.17881 18.0009C5.58812 17.0318 4.36389 15.5625 3.69791 13.8233C3.03193 12.084 2.96183 10.173 3.49859 8.38961C4.03534 6.60624 5.14863 5.05126 6.66405 3.96828C8.17946 2.88529 10.0114 2.33549 11.8728 2.40501C13.7343 2.47452 15.5201 3.15943 16.9505 4.35242C18.3808 5.54541 19.375 7.17909 19.7772 8.99753C20.0654 10.3168 20.0357 11.6856 19.6906 12.9911C19.6498 13.144 19.6396 13.3035 19.6604 13.4603C19.6813 13.6172 19.7329 13.7684 19.8122 13.9054C19.8915 14.0423 19.997 14.1623 20.1227 14.2585C20.2484 14.3546 20.3918 14.4251 20.5448 14.4659C20.8537 14.5482 21.1826 14.5044 21.4592 14.3443C21.7358 14.1841 21.9375 13.9206 22.0198 13.6118C22.6829 11.1203 22.4364 8.47408 21.3247 6.14777C20.213 3.82146 18.3087 1.9672 15.9534 0.917543C13.5981 -0.132117 10.9458 -0.30852 8.47212 0.419968C5.99848 1.14846 3.86532 2.73418 2.4552 4.89277C1.04508 7.05136 0.450235 9.6416 0.777347 12.199C1.10446 14.7564 2.33213 17.1136 4.24019 18.8479C6.14825 20.5823 8.61189 21.5802 11.1893 21.6629C13.7667 21.7456 16.2892 20.9075 18.3046 19.2991L22.6695 23.6583C22.7813 23.7703 22.914 23.8592 23.0602 23.9199C23.2064 23.9805 23.3631 24.0117 23.5213 24.0117C23.6796 24.0117 23.8363 23.9805 23.9824 23.9199C24.1286 23.8592 24.2614 23.7703 24.3731 23.6583C24.4866 23.5464 24.5768 23.4131 24.6383 23.266C24.6998 23.119 24.7315 22.9612 24.7315 22.8019C24.7315 22.6425 24.6998 22.4847 24.6383 22.3377C24.5768 22.1907 24.4866 22.0573 24.3731 21.9454Z" fill="#111111"/>
<path d="M15.1621 14.4346C14.9699 14.2561 14.7238 14.1464 14.4625 14.1229C14.2011 14.0994 13.9394 14.1634 13.7184 14.3047C13.0944 14.6896 12.3787 14.9002 11.6457 14.9146C10.9127 14.929 10.1893 14.7467 9.55073 14.3865C9.33426 14.2602 9.08269 14.2074 8.8337 14.2361C8.58471 14.2647 8.35169 14.3732 8.16954 14.5453L8.09735 14.6127C7.96811 14.7358 7.86903 14.887 7.80783 15.0547C7.74663 15.2224 7.72497 15.4019 7.74453 15.5793C7.76409 15.7567 7.82435 15.9272 7.9206 16.0775C8.01686 16.2278 8.14651 16.3539 8.29948 16.4459C9.32832 17.0389 10.4996 17.3398 11.687 17.3161C12.8744 17.2924 14.0327 16.9449 15.037 16.3111C15.1837 16.2179 15.3076 16.0929 15.3995 15.9454C15.4914 15.7979 15.549 15.6315 15.5679 15.4588C15.5869 15.286 15.5667 15.1112 15.509 14.9472C15.4512 14.7833 15.3574 14.6344 15.2343 14.5116L15.1621 14.4346Z" fill="#00C569"/>
</g>
<defs>
<clipPath id="clip0_11:747">
<rect width="24" height="24" fill="white" transform="translate(0.724365)"/>
</clipPath>
</defs>
</svg>
