<svg width="739" height="452" fill="none" xmlns="http://www.w3.org/2000/svg"><path d="M76.624 88.975c8.08-6.145 19.509-9.883 35.631-7.49 0 0 15.925-59.777 64.981-36.9 0 0 20.384-61.929 74.54-34.639l3.843 2.247c15.748 12.246 22.382 32.392 22.382 32.392 49.056-22.877 64.963 36.9 64.963 36.9 49.69-7.378 54.79 43.502 54.79 43.502H86.004c-16.813 0-23.434-25.337-9.38-36.012z" stroke="#2E186A" stroke-width="6" stroke-linecap="round" stroke-linejoin="round"/><g clip-path="url(#a)"><path d="M530.382 409.88c47.794-2.277 52.869 40.137 52.869 40.137H244.754c-18.247 0-25.436-23.039-10.184-32.753 8.779-5.582 21.187-8.98 38.684-6.81 0 0 17.297-54.358 70.558-33.548 0 0 6.473-16.464 21.711-27.666M388.26 246.773c8.772-5.588 21.18-8.986 38.684-6.81 0 0 17.29-54.358 70.551-33.548 0 0 22.138-56.321 80.929-31.505l4.172 2.043c17.098 11.136 24.3 29.462 24.3 29.462 53.262-20.81 70.552 33.548 70.552 33.548 53.957-6.676 59.486 39.563 59.486 39.563H534.768" stroke="#2E186A" stroke-width="6" stroke-linecap="round" stroke-linejoin="round"/><path d="M461.986 436.645c53.275 0 96.462-41.874 96.462-93.528 0-51.653-43.187-93.527-96.462-93.527-53.275 0-96.463 41.874-96.463 93.527 0 51.654 43.188 93.528 96.463 93.528z" stroke="#2E186A" stroke-width="6" stroke-linecap="round" stroke-linejoin="round"/><path d="M537.97 253.883a8.784 8.784 0 0 0-6.461-1.029c-2.209.501-4.122 1.831-5.32 3.699l-21.077 32.821c-14.489-11.299-32.879-16.811-51.417-15.41-18.538 1.401-35.825 9.608-48.333 22.947-12.509 13.339-19.295 30.803-18.974 48.829.321 18.025 7.725 35.252 20.701 48.164 12.976 12.913 30.545 20.536 49.122 21.316 18.576.779 36.759-5.345 50.837-17.122 14.078-11.778 22.989-28.32 24.914-46.251 1.926-17.931-3.279-35.899-14.553-50.236l23.302-36.305a8.118 8.118 0 0 0 1.177-3.028 8.029 8.029 0 0 0-.107-3.234 8.165 8.165 0 0 0-1.376-2.948 8.436 8.436 0 0 0-2.435-2.213zm-11.017 90.57c.014 14.895-5.203 29.351-14.793 40.987-9.59 11.636-22.982 19.76-37.969 23.032-14.987 3.273-30.677 1.5-44.486-5.027-13.809-6.527-24.914-17.419-31.487-30.882-6.573-13.463-8.221-28.695-4.674-43.187 3.547-14.493 12.079-27.382 24.19-36.547 12.111-9.164 27.079-14.056 42.441-13.871 15.361.185 30.2 5.436 42.072 14.889L464.1 353.299l-22.09-28.494c-1.362-1.764-3.391-2.931-5.64-3.244a8.774 8.774 0 0 0-6.354 1.574c-1.819 1.321-3.023 3.289-3.345 5.47a8.118 8.118 0 0 0 1.623 6.16l29.609 38.175a8.473 8.473 0 0 0 3.016 2.435 8.75 8.75 0 0 0 3.821.87h.372a8.749 8.749 0 0 0 3.941-1.122 8.432 8.432 0 0 0 2.945-2.777l42.368-65.948c8.208 11.091 12.611 24.404 12.587 38.055z" fill="#45D62F"/><g clip-path="url(#b)"><path d="m501.591 180.192-23.793-23.35c-7.531 7.204-16.53 10.048-27.007 9.983-10.476-.065-19.437-3.021-26.872-10.318-7.436-7.297-10.371-16.016-10.304-26.166.067-10.151 3.118-18.832 10.649-26.036l-23.792-23.35c-4.462-4.378-10.429-7.315-17.912-7.362-7.484-.047-13.489 2.816-18.008 7.138L186.813 250.738c-6.025 5.763-7.56 11.554-7.598 17.354-.048 7.25 2.907 13.069 7.368 17.447l23.793 23.35c7.521-5.753 16.53-10.048 27.007-9.982 10.476.065 19.437 3.021 26.872 10.318 7.436 7.297 10.371 16.016 10.304 26.166-.067 10.15-3.118 18.832-10.649 26.036l23.783 24.8c4.461 4.378 10.428 7.315 17.912 7.362 7.483.046 13.489-2.817 18.008-7.139l177.748-171.456c4.518-4.323 7.55-10.104 7.598-17.355.048-7.25-2.916-11.619-7.368-17.447zm-52.632 37.375-122.007 116.7c-3.013 2.881-6.006 2.863-9 2.844-2.993-.018-5.977-1.487-8.96-2.956l-69.892-68.59c-2.974-2.919-2.955-5.819-2.935-8.719.019-2.9 1.535-5.791 3.05-8.682l122.007-116.699c3.013-2.882 6.006-2.863 9-2.845 2.993.019 5.977 1.488 8.96 2.956l69.892 68.591c2.974 2.919 2.955 5.819 2.935 8.719-.028 4.35-1.544 7.241-3.05 8.681zm-80.368-68.655 60.969 59.834-112.97 108.055-60.969-59.834 112.97-108.055z" fill="url(#c)"/></g></g><defs><clipPath id="a"><path fill="#fff" transform="translate(0 50.031)" d="M0 0h739v401.969H0z"/></clipPath><clipPath id="b"><path fill="#fff" transform="rotate(.353 -8269.331 29041.505) skewX(-.023)" d="M0 0h359.204v348.02H0z"/></clipPath><linearGradient id="c" x1="179.112" y1="232.351" x2="508.377" y2="234.531" gradientUnits="userSpaceOnUse"><stop stop-color="#158F56"/><stop offset="1" stop-color="#44E98D"/></linearGradient></defs></svg>