<svg width="25" height="25" viewBox="0 0 25 25" fill="none" xmlns="http://www.w3.org/2000/svg">
<path d="M15.6524 2.52034L12.9495 1.85069C12.767 1.80575 12.5728 1.83571 12.4141 1.93473C12.2558 2.03352 12.1472 2.1916 12.1152 2.37074C12.1086 2.40765 12.1055 2.43066 12.1028 2.44912C11.8979 3.21713 11.181 3.75368 10.3593 3.75368C10.2087 3.75368 10.0571 3.73522 9.9093 3.69852C9.44334 3.58322 9.05152 3.29964 8.80682 2.90033C8.5619 2.50102 8.49318 2.03374 8.61215 1.58579C8.61958 1.56733 8.62837 1.5454 8.64122 1.50979C8.7025 1.33782 8.6865 1.14913 8.59728 0.989099C8.50783 0.82907 8.35303 0.712467 8.1703 0.667086L5.56045 0.020455C5.38674 -0.0223208 5.20243 0.00243266 5.04831 0.0905899C4.89397 0.17853 4.78221 0.32184 4.7376 0.489252L0.0214849 18.1719C-0.0715711 18.5202 0.146311 18.8755 0.507719 18.9649L5.9311 20.3083C5.8786 20.2675 5.82678 20.2239 5.77586 20.1768C5.5208 19.9407 5.47664 19.5464 5.65261 19.2559C5.71795 19.148 5.79929 19.0535 5.86621 18.9471L1.49911 17.8653L5.87883 1.44443L7.21361 1.77513C7.16111 2.39592 7.30756 3.01585 7.64306 3.56303C8.07161 4.26199 8.75703 4.75815 9.5729 4.9603C9.83066 5.02414 10.0954 5.05649 10.3597 5.05649C11.6147 5.05649 12.7303 4.3419 13.233 3.2662L14.6615 3.62014L13.8102 6.81204C14.1347 6.62573 14.6346 6.7571 14.8875 7.08997C14.9665 7.08975 15.0454 7.10408 15.1216 7.12884L16.1391 3.31376C16.2319 2.96482 16.014 2.6098 15.6524 2.52034Z" fill="black"/>
<path d="M4.57031 6.34889C4.53336 6.34889 4.49551 6.34433 4.45788 6.33521L3.91239 6.20016C3.67152 6.14044 3.52619 5.90376 3.58793 5.67165C3.64989 5.43953 3.89504 5.29926 4.1368 5.35897L4.68229 5.49403C4.92316 5.55374 5.06849 5.79042 5.00653 6.02276C4.95425 6.21861 4.77107 6.34889 4.57031 6.34889Z" fill="black"/>
<path d="M12.4879 8.31007C12.4509 8.31007 12.4131 8.30551 12.3755 8.29639L11.3856 8.05125C11.1448 7.99153 10.9994 7.75486 11.0614 7.52252C11.1234 7.29062 11.3685 7.14991 11.6103 7.21006L12.6001 7.45521C12.841 7.51492 12.9863 7.7516 12.9246 7.98393C12.8718 8.17979 12.6889 8.31007 12.4879 8.31007ZM10.5085 7.81978C10.4715 7.81978 10.4337 7.81522 10.396 7.8061L9.40623 7.56095C9.16536 7.50124 9.02003 7.26456 9.082 7.03223C9.14396 6.80033 9.38843 6.66027 9.63087 6.71977L10.6205 6.96492C10.8613 7.02463 11.0067 7.26131 10.9447 7.49364C10.8924 7.6895 10.7095 7.81978 10.5085 7.81978ZM8.52907 7.32949C8.49212 7.32949 8.45426 7.32514 8.41663 7.31581L7.42682 7.07066C7.18595 7.01095 7.04062 6.77427 7.10259 6.54193C7.16455 6.31003 7.40924 6.16976 7.65146 6.22948L8.64128 6.47462C8.88214 6.53433 9.02747 6.77101 8.96551 7.00335C8.91301 7.1992 8.73005 7.32949 8.52907 7.32949ZM6.54966 6.83919C6.51271 6.83919 6.47485 6.83463 6.43722 6.82551L5.44741 6.58037C5.20654 6.52065 5.06121 6.28398 5.12318 6.05164C5.18514 5.81974 5.42983 5.67904 5.67205 5.73918L6.66187 5.98433C6.90273 6.04404 7.04806 6.28072 6.9861 6.51305C6.9336 6.70891 6.75064 6.83919 6.54966 6.83919Z" fill="black"/>
<path d="M3.52091 16.9045C3.48396 16.9045 3.44611 16.8999 3.40848 16.8908C3.16762 16.8311 3.02229 16.5944 3.08402 16.3619L4.28091 11.875C4.34287 11.6431 4.58779 11.5041 4.82978 11.5625C5.07064 11.6222 5.21597 11.8589 5.15401 12.0915L3.95713 16.5784C3.90485 16.7742 3.72167 16.9045 3.52091 16.9045Z" fill="black"/>
<path d="M6.49197 13.0977C6.45502 13.0977 6.41716 13.0931 6.37954 13.084C6.13867 13.0243 5.99334 12.7876 6.0553 12.5553L7.05797 8.79603C7.11993 8.56391 7.36462 8.42364 7.60684 8.48357C7.8477 8.54328 7.99303 8.77996 7.93107 9.0123L6.92841 12.7716C6.87591 12.9674 6.69295 13.0977 6.49197 13.0977Z" fill="black"/>
<path d="M5.03114 11.2331C4.99396 11.2331 4.95611 11.2286 4.91825 11.2195C4.67739 11.1595 4.53228 10.9228 4.59447 10.6903L5.22423 8.33849C5.28619 8.10637 5.53134 7.9661 5.77333 8.02647C6.01419 8.0864 6.1593 8.32329 6.09711 8.55541L5.46735 10.9076C5.41485 11.1031 5.23167 11.2331 5.03114 11.2331Z" fill="black"/>
<path d="M8.51492 12.1145C8.47797 12.1145 8.44011 12.1099 8.40248 12.1008C8.16162 12.0411 8.01629 11.8044 8.07825 11.5718L8.71049 9.20203C8.77246 8.97012 9.01715 8.83072 9.25937 8.88957C9.50023 8.94928 9.64556 9.18596 9.5836 9.41851L8.95136 11.7883C8.89886 11.9842 8.71568 12.1145 8.51492 12.1145Z" fill="black"/>
<path d="M10.4982 25C10.491 25 10.4835 24.9998 10.4761 24.9995C10.2967 24.9941 10.1273 24.9201 10.0047 24.7939L2.88089 17.4654C2.75831 17.3394 2.69275 17.1714 2.6986 16.9989C2.70424 16.8261 2.78107 16.6628 2.91198 16.5447L16.7381 4.06285C16.8688 3.94473 17.0425 3.88154 17.2221 3.88719C17.4014 3.89283 17.5709 3.96688 17.6935 4.09303L19.5354 5.98798C19.6643 6.12065 19.7299 6.29935 19.7164 6.48066C19.7026 6.66197 19.6107 6.8296 19.4633 6.94294C19.4334 6.96574 19.4142 6.97942 19.398 6.99093C18.6731 7.64581 18.636 8.74669 19.3151 9.44544C19.6593 9.79959 20.1264 9.99436 20.6302 9.99436C21.0892 9.99436 21.5268 9.8276 21.8618 9.52513C21.8742 9.51145 21.8898 9.49342 21.9157 9.46585C22.0425 9.33122 22.2221 9.25392 22.4109 9.25262C22.4125 9.25262 22.4143 9.25262 22.4161 9.25262C22.6029 9.25262 22.7816 9.32732 22.9093 9.45868L24.8175 11.4216C25.0728 11.6841 25.0586 12.0965 24.7862 12.3422L10.9603 24.8243C10.8348 24.9372 10.6696 25 10.4982 25ZM4.32945 17.0502L10.5295 23.4279L23.3687 11.8363L22.3602 10.7993C21.8501 11.1226 21.2517 11.297 20.6302 11.297C19.7614 11.297 18.9223 10.9467 18.3282 10.3357C17.2654 9.24241 17.205 7.58588 18.1112 6.42833L17.1687 5.45882L4.32945 17.0502Z" fill="black"/>
<path d="M13.5755 8.9882C13.4554 8.9882 13.3356 8.94217 13.2466 8.85076L12.8615 8.4547C12.6914 8.27969 12.7006 8.00479 12.8824 7.84086C13.0643 7.67735 13.3491 7.68604 13.5194 7.86083L13.9045 8.25689C14.0746 8.4319 14.0654 8.70679 13.8835 8.87073C13.7966 8.94934 13.6859 8.9882 13.5755 8.9882Z" fill="black"/>
<path d="M19.1645 14.7377C19.0444 14.7377 18.9245 14.6917 18.8355 14.6003L18.1368 13.8816C17.9667 13.7065 17.9759 13.4319 18.1577 13.2677C18.3393 13.104 18.6241 13.1125 18.7947 13.2879L19.4934 14.0066C19.6635 14.1816 19.6543 14.4563 19.4725 14.6205C19.3857 14.6989 19.2749 14.7377 19.1645 14.7377ZM17.7673 13.3001C17.6472 13.3001 17.5273 13.254 17.4383 13.1626L16.7396 12.4439C16.5695 12.2689 16.5787 11.9942 16.7605 11.8301C16.9424 11.6663 17.2272 11.6748 17.3975 11.8502L18.0962 12.569C18.2663 12.744 18.2571 13.0187 18.0753 13.1828C17.9883 13.2614 17.8777 13.3001 17.7673 13.3001ZM16.3698 11.8628C16.2498 11.8628 16.1299 11.8168 16.0409 11.7254L15.3422 11.0067C15.1721 10.8317 15.1813 10.557 15.3631 10.3928C15.5447 10.2291 15.8295 10.2378 16.0001 10.413L16.6988 11.1315C16.8689 11.3065 16.8597 11.5812 16.6779 11.7454C16.5909 11.8242 16.4803 11.8628 16.3698 11.8628ZM14.9727 10.4254C14.8526 10.4254 14.7327 10.3794 14.6437 10.288L13.945 9.56923C13.7749 9.39422 13.7841 9.11955 13.9659 8.95539C14.1475 8.79167 14.4326 8.80014 14.6029 8.97558L15.3016 9.69431C15.4717 9.86932 15.4625 10.144 15.2807 10.3081C15.1937 10.3865 15.0831 10.4254 14.9727 10.4254Z" fill="black"/>
<path d="M20.2489 15.8525C20.1288 15.8525 20.0089 15.8064 19.9199 15.715L19.5348 15.319C19.3647 15.144 19.374 14.8693 19.5558 14.7051C19.7374 14.5414 20.0222 14.5501 20.1928 14.7253L20.5778 15.1214C20.7479 15.2964 20.7387 15.5711 20.5569 15.7352C20.4699 15.8138 20.3593 15.8525 20.2489 15.8525Z" fill="black"/>
<path d="M6.81204 17.3529C6.69194 17.3529 6.57207 17.3069 6.48307 17.2154C6.31296 17.0404 6.3222 16.7658 6.50403 16.6016L10.0124 13.4345C10.194 13.2707 10.4788 13.2792 10.6494 13.4547C10.8195 13.6297 10.8103 13.9043 10.6285 14.0685L7.12004 17.2354C7.03307 17.314 6.92244 17.3529 6.81204 17.3529Z" fill="black"/>
<path d="M8.10745 18.6848C7.98735 18.6848 7.86726 18.6388 7.77848 18.5474C7.60837 18.3724 7.61761 18.0975 7.79944 17.9335L9.60197 16.3065C9.78381 16.1428 10.0686 16.1513 10.2389 16.3267C10.4091 16.5017 10.3998 16.7766 10.218 16.9406L8.41546 18.5676C8.32848 18.6462 8.21785 18.6848 8.10745 18.6848Z" fill="black"/>
<path d="M11.439 15.677C11.3189 15.677 11.1988 15.6308 11.11 15.5396C10.9399 15.3646 10.9491 15.0899 11.131 14.9258L14.0707 12.2721C14.2523 12.1084 14.5378 12.1173 14.7077 12.2923C14.8778 12.4673 14.8685 12.742 14.6867 12.9062L11.747 15.5598C11.6603 15.6382 11.5494 15.677 11.439 15.677Z" fill="black"/>
<path d="M11.2446 13.3481C11.1243 13.3481 11.0042 13.3018 10.9154 13.2104C10.7455 13.0352 10.755 12.7605 10.9368 12.5966L12.7779 10.9372C12.9592 10.7735 13.2445 10.7822 13.4148 10.9578C13.5847 11.1331 13.5753 11.4077 13.3934 11.5717L11.5524 13.231C11.4654 13.3092 11.355 13.3481 11.2446 13.3481Z" fill="black"/>
<path d="M9.27346 19.8843C9.15337 19.8843 9.0335 19.8382 8.9445 19.7468C8.77438 19.5718 8.78362 19.2971 8.96545 19.133L12.4734 15.9658C12.6552 15.8021 12.9398 15.8106 13.1104 15.986C13.2805 16.161 13.2713 16.4357 13.0894 16.5999L9.58147 19.767C9.4945 19.8454 9.38387 19.8843 9.27346 19.8843Z" fill="black"/>
<path d="M10.6978 21.35C10.5777 21.35 10.4576 21.3039 10.3688 21.2125C10.1987 21.0375 10.2079 20.7626 10.3898 20.5987L12.1925 18.9714C12.3741 18.8077 12.6589 18.8162 12.8295 18.9916C12.9996 19.1666 12.9904 19.4415 12.8085 19.6055L11.0058 21.2327C10.919 21.3111 10.8082 21.35 10.6978 21.35Z" fill="black"/>
<path d="M14.0293 18.3417C13.9092 18.3417 13.7891 18.2957 13.7004 18.2043C13.5302 18.0291 13.5395 17.7544 13.7213 17.5905L16.6612 14.9368C16.8431 14.7731 17.1279 14.7816 17.2982 14.957C17.4683 15.1323 17.4591 15.4069 17.2773 15.5709L14.3373 18.2245C14.2506 18.3029 14.1397 18.3417 14.0293 18.3417Z" fill="black"/>
<path d="M13.6938 15.8935C13.5737 15.8935 13.4539 15.8475 13.3651 15.7561C13.1948 15.5811 13.204 15.3064 13.3858 15.1425L15.2386 13.4694C15.4202 13.3053 15.7052 13.3142 15.8754 13.4894C16.0457 13.6644 16.0365 13.9391 15.8546 14.103L14.0018 15.7761C13.9149 15.8547 13.8042 15.8935 13.6938 15.8935Z" fill="black"/>
</svg>
