<svg width="24" height="24" viewBox="0 0 24 24" fill="none" xmlns="http://www.w3.org/2000/svg">
<path d="M11.7191 23.7191C18.1915 23.7191 23.4383 18.4723 23.4383 12C23.4383 5.52766 18.1915 0.280823 11.7191 0.280823C5.24684 0.280823 0 5.52766 0 12C0 18.4723 5.24684 23.7191 11.7191 23.7191Z" fill="#ECF0F1"/>
<path d="M11.7191 1.89726C17.2898 1.89726 21.8219 6.42933 21.8219 12C21.8219 17.5706 17.2898 22.1027 11.7191 22.1027C6.14851 22.1027 1.61643 17.5706 1.61643 12C1.61643 6.42933 6.14851 1.89726 11.7191 1.89726ZM11.7191 0.280823C5.24694 0.280823 0 5.52777 0 12C0 18.4722 5.24694 23.7191 11.7191 23.7191C18.1913 23.7191 23.4383 18.4722 23.4383 12C23.4383 5.52777 18.1913 0.280823 11.7191 0.280823Z" fill="#545E73"/>
<path d="M11.7191 2.65619C11.496 2.65619 11.3149 2.83683 11.3149 3.0603V3.46441C11.3149 3.68788 11.496 3.86851 11.7191 3.86851C11.9421 3.86851 12.1232 3.68788 12.1232 3.46441V3.0603C12.1232 2.83723 11.9421 2.65619 11.7191 2.65619Z" fill="#8697CB"/>
<path d="M11.7191 20.0328C11.496 20.0328 11.3149 20.2135 11.3149 20.4369V20.8411C11.3149 21.0645 11.496 21.2452 11.7191 21.2452C11.9421 21.2452 12.1232 21.0645 12.1232 20.8411V20.4369C12.1232 20.2139 11.9421 20.0328 11.7191 20.0328Z" fill="#8697CB"/>
<path d="M20.6095 11.5466H20.2054C19.9823 11.5466 19.8013 11.7272 19.8013 11.9507C19.8013 12.1742 19.9823 12.3548 20.2054 12.3548H20.6095C20.8326 12.3548 21.0136 12.1742 21.0136 11.9507C21.0136 11.7272 20.8326 11.5466 20.6095 11.5466Z" fill="#8697CB"/>
<path d="M3.23278 11.5466H2.82867C2.6056 11.5466 2.42456 11.7272 2.42456 11.9507C2.42456 12.1742 2.6056 12.3548 2.82867 12.3548H3.23278C3.45585 12.3548 3.63689 12.1742 3.63689 11.9507C3.63689 11.7272 3.45585 11.5466 3.23278 11.5466Z" fill="#8697CB"/>
<path d="M17.7196 5.3787L17.4339 5.6644C17.2759 5.82241 17.2759 6.07781 17.4339 6.23581C17.5127 6.31461 17.6162 6.35422 17.7196 6.35422C17.8231 6.35422 17.9265 6.31461 18.0053 6.23581L18.2911 5.95011C18.4491 5.7921 18.4491 5.5367 18.2911 5.3787C18.133 5.22069 17.8776 5.22069 17.7196 5.3787Z" fill="#8697CB"/>
<path d="M5.43277 17.666L5.14707 17.9517C4.98906 18.1097 4.98906 18.3651 5.14707 18.5231C5.22587 18.6019 5.32932 18.6415 5.43277 18.6415C5.53623 18.6415 5.63968 18.6019 5.71848 18.5231L6.00418 18.2374C6.16219 18.0794 6.16219 17.824 6.00418 17.666C5.84618 17.508 5.59038 17.508 5.43277 17.666Z" fill="#8697CB"/>
<path d="M18.0053 17.666C17.8473 17.508 17.5919 17.508 17.4339 17.666C17.2759 17.824 17.2759 18.0794 17.4339 18.2374L17.7196 18.5231C17.7984 18.6019 17.9019 18.6415 18.0053 18.6415C18.1088 18.6415 18.2122 18.6019 18.2911 18.5231C18.4491 18.3651 18.4491 18.1097 18.2911 17.9517L18.0053 17.666Z" fill="#8697CB"/>
<path d="M5.71848 5.3787C5.56047 5.22069 5.30508 5.22069 5.14707 5.3787C4.98906 5.5367 4.98906 5.7921 5.14707 5.95011L5.43277 6.23581C5.51158 6.31461 5.61503 6.35422 5.71848 6.35422C5.82193 6.35422 5.92538 6.31461 6.00418 6.23581C6.16219 6.07781 6.16219 5.82241 6.00418 5.6644L5.71848 5.3787Z" fill="#8697CB"/>
<path d="M10.5068 12.3552H7.27398C7.05091 12.3552 6.86987 12.1745 6.86987 11.951C6.86987 11.7276 7.05091 11.5469 7.27398 11.5469H10.5068C10.7299 11.5469 10.911 11.7276 10.911 11.951C10.911 12.1745 10.7299 12.3552 10.5068 12.3552Z" fill="#545E73"/>
<path d="M11.719 11.1428C11.496 11.1428 11.3149 10.9622 11.3149 10.7387V6.29351C11.3149 6.07004 11.496 5.8894 11.719 5.8894C11.9421 5.8894 12.1232 6.07004 12.1232 6.29351V10.7387C12.1232 10.9618 11.9421 11.1428 11.719 11.1428Z" fill="#545E73"/>
<path d="M11.7192 13.5675C10.8278 13.5675 10.1028 12.8425 10.1028 11.951C10.1028 11.0596 10.8278 10.3346 11.7192 10.3346C12.6107 10.3346 13.3357 11.0596 13.3357 11.951C13.3357 12.8425 12.6107 13.5675 11.7192 13.5675ZM11.7192 11.1428C11.2735 11.1428 10.911 11.5053 10.911 11.951C10.911 12.3968 11.2735 12.7592 11.7192 12.7592C12.1649 12.7592 12.5274 12.3968 12.5274 11.951C12.5274 11.5053 12.1649 11.1428 11.7192 11.1428Z" fill="#545E73"/>
<path d="M19.1508 23.7191C21.829 23.7191 24.0001 21.548 24.0001 18.8698C24.0001 16.1916 21.829 14.0205 19.1508 14.0205C16.4726 14.0205 14.3015 16.1916 14.3015 18.8698C14.3015 21.548 16.4726 23.7191 19.1508 23.7191Z" fill="#3DDC84"/>
<path d="M21.8063 16.5175C21.6224 16.3898 21.3711 16.4351 21.2438 16.6185L18.9824 19.8676L17.3866 18.5575C17.2144 18.4156 16.9594 18.4411 16.818 18.6136C16.6762 18.7862 16.7012 19.0408 16.8742 19.1822L18.8082 20.7699C18.881 20.8293 18.9715 20.8617 19.0644 20.8617C19.0826 20.8617 19.1012 20.8605 19.1198 20.858C19.2313 20.8423 19.3316 20.7813 19.3962 20.6887L21.9073 17.0804C22.0346 16.897 21.9894 16.6448 21.8063 16.5175Z" fill="white"/>
</svg>
